<svg width="394" height="208" viewBox="0 0 394 208" fill="none" xmlns="http://www.w3.org/2000/svg">
<g clip-path="url(#clip0_225_4175)">
<path d="M49.4323 182.245C59.7187 182.155 69.9884 181.402 80.1778 179.992C80.5356 179.943 80.8934 179.889 81.2512 179.839L80.713 83.6179C80.3576 83.3353 79.998 83.0573 79.634 82.7878C78.4296 81.8895 77.1909 81.0475 75.9095 80.2746C69.7362 76.5597 62.5086 74.8589 57.5219 76.5632L57.4444 76.5938C56.3525 76.9617 55.344 77.5414 54.477 78.2996C50.0979 82.1855 50.8279 90.0422 54.3625 97.172C47.3545 90.777 38.5115 85.685 30.6181 85.2981C22.9189 84.9187 17.4188 88.94 12.7447 93.3015C12.5902 93.4447 12.44 93.5877 12.2898 93.7308C12.2125 93.8003 12.1396 93.8739 12.0623 93.9432C8.50035 97.3461 4.98893 101.313 5.41368 107.056C5.88036 113.354 11.1615 120.336 17.3155 125.232C23.4652 130.128 30.4513 133.381 37.2694 136.679C44.0832 139.981 51.0711 143.553 56.8951 148.852C47.8075 141.675 37.4678 135.889 27.4116 133.752C17.3555 131.614 7.6973 133.495 2.96122 139.891C1.56773 141.833 0.66008 144.08 0.314262 146.444C0.268349 146.72 0.231064 147 0.198128 147.285C-0.476303 153.205 1.57378 160.275 6.47417 166.289C11.8699 172.913 19.8687 177.506 27.4621 179.791C35.0555 182.075 42.3656 182.319 49.4323 182.245Z" fill="#F2F2F2"/>
<path d="M80.9126 119.292L80.9023 117.452C80.5367 116.867 80.1753 116.28 79.8182 115.691C79.5875 115.326 79.3654 114.956 79.1389 114.587C75.4073 108.484 71.8278 102.342 68.4006 96.163C64.9706 89.9892 61.6986 83.7844 58.5846 77.5485C58.5126 77.3832 58.3848 77.2484 58.2235 77.1674C58.0623 77.0864 57.8777 77.0644 57.7019 77.1052C57.6789 77.1119 57.6571 77.1223 57.6374 77.1359C57.474 77.2229 57.406 77.4173 57.5457 77.701C57.9296 78.4659 58.3136 79.2352 58.7062 80C61.8735 86.2529 65.1988 92.479 68.6822 98.6782C72.1641 104.873 75.7998 111.033 79.5891 117.157C79.6675 117.286 79.7502 117.415 79.8285 117.544C80.1899 118.128 80.5512 118.708 80.9126 119.292Z" fill="white"/>
<path d="M81.0454 143.015L81.039 141.877C80.6795 141.621 80.32 141.369 79.9604 141.112C71.4962 135.083 63.0319 129.055 54.5677 123.028C40.7104 113.159 26.8532 103.293 12.9959 93.4296C12.9213 93.3711 12.8361 93.3277 12.745 93.3016C12.4381 93.2173 12.2582 93.4424 12.29 93.7309C12.3074 93.8526 12.3506 93.9691 12.4166 94.0728C12.4827 94.1764 12.5701 94.2648 12.6731 94.3321C20.4442 99.8653 28.2125 105.397 35.9779 110.928C49.7659 120.745 63.5524 130.562 77.3374 140.377C78.2125 141.001 79.0918 141.626 79.9668 142.25C80.3264 142.506 80.6859 142.763 81.0454 143.015Z" fill="white"/>
<path d="M74.4306 168.362C76.3502 168.304 78.2393 168.177 80.1108 168.012C80.4687 167.98 80.8267 167.947 81.1846 167.915L81.1779 166.721C80.82 166.758 80.4621 166.794 80.1042 166.826C77.4004 167.079 74.666 167.258 71.8574 167.282C64.0706 167.314 56.3008 166.556 48.6673 165.02C40.4481 163.387 32.3868 161.043 24.5747 158.013C16.3354 154.833 8.36427 151 0.737671 146.549C0.613373 146.465 0.46344 146.428 0.314285 146.444C-0.0262985 146.493 -0.127319 146.946 0.198158 147.285C0.262024 147.352 0.334999 147.409 0.414879 147.456C1.36283 148.006 2.31358 148.547 3.26719 149.078C10.9361 153.364 18.935 157.033 27.1878 160.05C35.0254 162.923 43.0989 165.109 51.3165 166.582C58.9402 167.962 66.6852 168.558 74.4306 168.362Z" fill="white"/>
<path d="M83.9203 4.89828e-09H345.806C346.804 0.000906068 347.76 0.397121 348.466 1.10167C349.171 1.80622 349.567 2.76154 349.568 3.75791V181.017C349.567 182.014 349.171 182.969 348.466 183.673C347.76 184.378 346.804 184.774 345.806 184.775H83.9203C83.3764 184.775 82.8389 184.657 82.345 184.43C81.8511 184.202 81.4126 183.87 81.0597 183.456C81.0298 183.424 81.0024 183.389 80.9778 183.353C80.7532 183.079 80.5714 182.772 80.4384 182.444C80.2491 181.992 80.1524 181.507 80.1538 181.017V3.75793C80.1549 2.76086 80.5522 1.80499 81.2585 1.10036C81.9647 0.39572 82.9221 -5.08391e-05 83.9203 4.89828e-09ZM81.228 181.017C81.2276 181.542 81.3822 182.054 81.6725 182.491C81.9304 182.876 82.2804 183.19 82.6907 183.405C83.0707 183.601 83.4925 183.703 83.9203 183.702H345.806C346.519 183.701 347.202 183.418 347.706 182.915C348.21 182.411 348.493 181.729 348.494 181.017V3.75793C348.493 3.04613 348.21 2.36373 347.706 1.86041C347.202 1.35709 346.519 1.07394 345.806 1.07308H83.9203C83.207 1.07299 82.5228 1.35569 82.018 1.85909C81.5132 2.36249 81.2291 3.04543 81.228 3.75793V181.017Z" fill="#3F3D56"/>
<path d="M80.6932 15.0614H349.032V16.1357H80.6932V15.0614Z" fill="#3F3D56"/>
<path d="M339.89 11.2799C338.108 11.2799 336.664 9.83701 336.664 8.05708C336.664 6.27715 338.108 4.83423 339.89 4.83423C341.672 4.83423 343.117 6.27715 343.117 8.05708C343.117 9.83701 341.672 11.2799 339.89 11.2799Z" fill="#3F3D56"/>
<path d="M330.614 11.2799C328.832 11.2799 327.388 9.83701 327.388 8.05708C327.388 6.27715 328.832 4.83423 330.614 4.83423C332.396 4.83423 333.841 6.27715 333.841 8.05708C333.841 9.83701 332.396 11.2799 330.614 11.2799Z" fill="#3F3D56"/>
<path d="M321.338 11.2799C319.556 11.2799 318.111 9.83701 318.111 8.05708C318.111 6.27715 319.556 4.83423 321.338 4.83423C323.12 4.83423 324.564 6.27715 324.564 8.05708C324.564 9.83701 323.12 11.2799 321.338 11.2799Z" fill="#3F3D56"/>
<path d="M147.515 39.9286H282.125C283.613 39.9286 285.04 39.3384 286.091 38.2878C287.143 37.2371 287.734 35.8121 287.734 34.3263C287.734 32.8404 287.143 31.4154 286.091 30.3648C285.04 29.3141 283.613 28.7239 282.125 28.7239H147.515C146.028 28.7239 144.601 29.3141 143.549 30.3648C142.497 31.4154 141.906 32.8404 141.906 34.3263C141.906 35.8121 142.497 37.2371 143.549 38.2878C144.601 39.3384 146.028 39.9286 147.515 39.9286ZM282.125 29.5858C283.384 29.5858 284.591 30.0852 285.481 30.9742C286.371 31.8632 286.871 33.069 286.871 34.3263C286.871 35.5835 286.371 36.7893 285.481 37.6783C284.591 38.5673 283.384 39.0667 282.125 39.0667H147.515C146.256 39.0667 145.049 38.5673 144.159 37.6783C143.269 36.7893 142.769 35.5835 142.769 34.3263C142.769 33.069 143.269 31.8632 144.159 30.9742C145.049 30.0852 146.256 29.5858 147.515 29.5858H282.125Z" fill="#3F3D56"/>
<path d="M281.001 74.1893H293.081C293.997 74.1893 294.875 73.8261 295.522 73.1795C296.169 72.533 296.533 71.6561 296.533 70.7417C296.533 69.8273 296.169 68.9504 295.522 68.3039C294.875 67.6573 293.997 67.2941 293.081 67.2941H281.001C280.086 67.2941 279.208 67.6573 278.56 68.3039C277.913 68.9504 277.549 69.8273 277.549 70.7417C277.549 71.6561 277.913 72.533 278.56 73.1795C279.208 73.8261 280.086 74.1893 281.001 74.1893Z" fill="#CCCCCC"/>
<path d="M266.763 85.8251H293.081C293.997 85.8251 294.875 85.4618 295.522 84.8153C296.169 84.1687 296.533 83.2918 296.533 82.3774C296.533 81.4631 296.169 80.5862 295.522 79.9396C294.875 79.2931 293.997 78.9298 293.081 78.9298H266.763C265.848 78.9298 264.97 79.2931 264.323 79.9396C263.675 80.5862 263.312 81.4631 263.312 82.3774C263.312 83.2918 263.675 84.1687 264.323 84.8153C264.97 85.4618 265.848 85.8251 266.763 85.8251Z" fill="#CCCCCC"/>
<path d="M278.844 125.042H290.924C291.84 125.042 292.718 124.678 293.365 124.032C294.012 123.385 294.376 122.508 294.376 121.594C294.376 120.68 294.012 119.803 293.365 119.156C292.718 118.51 291.84 118.146 290.924 118.146H278.844C277.928 118.146 277.05 118.51 276.403 119.156C275.756 119.803 275.392 120.68 275.392 121.594C275.392 122.508 275.756 123.385 276.403 124.032C277.05 124.678 277.928 125.042 278.844 125.042Z" fill="#CCCCCC"/>
<path d="M264.606 136.677H290.924C291.84 136.677 292.718 136.314 293.365 135.668C294.012 135.021 294.376 134.144 294.376 133.23C294.376 132.315 294.012 131.439 293.365 130.792C292.718 130.145 291.84 129.782 290.924 129.782H264.606C263.691 129.782 262.813 130.145 262.166 130.792C261.518 131.439 261.155 132.315 261.155 133.23C261.155 134.144 261.518 135.021 262.166 135.668C262.813 136.314 263.691 136.677 264.606 136.677Z" fill="#CCCCCC"/>
<path d="M199.458 123.749H211.539C212.454 123.749 213.332 123.386 213.979 122.739C214.627 122.093 214.99 121.216 214.99 120.301C214.99 119.387 214.627 118.51 213.979 117.863C213.332 117.217 212.454 116.854 211.539 116.854H199.458C198.543 116.854 197.665 117.217 197.018 117.863C196.37 118.51 196.007 119.387 196.007 120.301C196.007 121.216 196.37 122.093 197.018 122.739C197.665 123.386 198.543 123.749 199.458 123.749Z" fill="#CCCCCC"/>
<path d="M185.221 135.385H211.539C212.454 135.385 213.332 135.021 213.979 134.375C214.627 133.728 214.99 132.851 214.99 131.937C214.99 131.023 214.627 130.146 213.979 129.499C213.332 128.852 212.454 128.489 211.539 128.489H185.221C184.305 128.489 183.427 128.852 182.78 129.499C182.133 130.146 181.769 131.023 181.769 131.937C181.769 132.851 182.133 133.728 182.78 134.375C183.427 135.021 184.305 135.385 185.221 135.385Z" fill="#CCCCCC"/>
<path d="M200.752 76.3441H212.833C213.748 76.3441 214.626 75.9809 215.273 75.3343C215.921 74.6878 216.284 73.8108 216.284 72.8965C216.284 71.9821 215.921 71.1052 215.273 70.4586C214.626 69.8121 213.748 69.4489 212.833 69.4489H200.752C199.837 69.4489 198.959 69.8121 198.312 70.4586C197.665 71.1052 197.301 71.9821 197.301 72.8965C197.301 73.8108 197.665 74.6878 198.312 75.3343C198.959 75.9809 199.837 76.3441 200.752 76.3441Z" fill="#CCCCCC"/>
<path d="M186.515 87.9797H212.833C213.748 87.9797 214.626 87.6165 215.273 86.9699C215.921 86.3234 216.284 85.4465 216.284 84.5321C216.284 83.6177 215.921 82.7408 215.273 82.0943C214.626 81.4477 213.748 81.0845 212.833 81.0845H186.515C185.599 81.0845 184.722 81.4477 184.074 82.0943C183.427 82.7408 183.063 83.6177 183.063 84.5321C183.063 85.4465 183.427 86.3234 184.074 86.9699C184.722 87.6165 185.599 87.9797 186.515 87.9797Z" fill="#CCCCCC"/>
<path d="M120.073 73.7584H132.153C133.068 73.7584 133.946 73.3952 134.594 72.7486C135.241 72.1021 135.604 71.2251 135.604 70.3108C135.604 69.3964 135.241 68.5195 134.594 67.873C133.946 67.2264 133.068 66.8632 132.153 66.8632H120.073C119.157 66.8632 118.279 67.2264 117.632 67.873C116.985 68.5195 116.621 69.3964 116.621 70.3108C116.621 71.2251 116.985 72.1021 117.632 72.7486C118.279 73.3952 119.157 73.7584 120.073 73.7584Z" fill="#CCCCCC"/>
<path d="M105.835 85.394H132.153C133.068 85.394 133.946 85.0308 134.594 84.3842C135.241 83.7377 135.604 82.8608 135.604 81.9464C135.604 81.032 135.241 80.1551 134.594 79.5086C133.946 78.862 133.068 78.4988 132.153 78.4988H105.835C104.92 78.4988 104.042 78.862 103.394 79.5086C102.747 80.1551 102.383 81.032 102.383 81.9464C102.383 82.8608 102.747 83.7377 103.394 84.3842C104.042 85.0308 104.92 85.394 105.835 85.394Z" fill="#CCCCCC"/>
<path d="M314.395 89.4881C307.247 89.4881 301.452 83.6998 301.452 76.5596C301.452 69.4193 307.247 63.631 314.395 63.631C321.544 63.631 327.339 69.4193 327.339 76.5596C327.339 83.6998 321.544 89.4881 314.395 89.4881Z" fill="#1D73F8"/>
<path d="M308.355 82.3774H320.435C320.779 82.3771 321.108 82.2407 321.35 81.9984C321.593 81.756 321.729 81.4273 321.73 81.0846V72.0346C321.729 71.6918 321.593 71.3632 321.35 71.1208C321.108 70.8784 320.779 70.7421 320.435 70.7417H317.035C316.813 70.7409 316.596 70.7971 316.403 70.9048C316.21 71.0126 316.048 71.1682 315.932 71.3568L314.984 72.8965H308.355C308.012 72.8968 307.683 73.0332 307.44 73.2756C307.198 73.5179 307.061 73.8466 307.061 74.1893V81.0846C307.061 81.4273 307.198 81.756 307.44 81.9984C307.683 82.2407 308.012 82.3771 308.355 82.3774ZM320.435 71.6036C320.55 71.6038 320.659 71.6492 320.74 71.73C320.821 71.8108 320.867 71.9203 320.867 72.0346V81.0846C320.867 81.1988 320.821 81.3084 320.74 81.3891C320.659 81.4699 320.55 81.5154 320.435 81.5155H308.355C308.241 81.5154 308.131 81.4699 308.05 81.3891C307.969 81.3084 307.924 81.1988 307.924 81.0846V74.1893C307.924 74.0751 307.969 73.9656 308.05 73.8848C308.131 73.804 308.241 73.7585 308.355 73.7584H315.466L316.667 71.8086C316.705 71.7457 316.76 71.6938 316.824 71.6579C316.888 71.622 316.961 71.6033 317.035 71.6036H320.435Z" fill="white"/>
<path d="M235.01 91.6429C227.861 91.6429 222.067 85.8546 222.067 78.7143C222.067 71.5741 227.861 65.7858 235.01 65.7858C242.158 65.7858 247.953 71.5741 247.953 78.7143C247.953 85.8546 242.158 91.6429 235.01 91.6429Z" fill="#1D73F8"/>
<path d="M229.401 86.9024H240.619C240.962 86.9021 241.291 86.7657 241.533 86.5234C241.776 86.281 241.912 85.9524 241.913 85.6096V71.8191C241.912 71.4763 241.776 71.1477 241.533 70.9053C241.291 70.663 240.962 70.5266 240.619 70.5262H232.49C232.196 70.5265 231.91 70.6271 231.68 70.8114L228.59 73.291C228.439 73.4118 228.317 73.5652 228.233 73.7397C228.149 73.9142 228.106 74.1053 228.107 74.2988V85.6096C228.107 85.9524 228.244 86.281 228.486 86.5234C228.729 86.7657 229.058 86.9021 229.401 86.9024ZM240.619 71.3882C240.733 71.3883 240.843 71.4338 240.923 71.5145C241.004 71.5953 241.05 71.7049 241.05 71.8191V85.6096C241.05 85.7238 241.004 85.8334 240.923 85.9142C240.843 85.9949 240.733 86.0404 240.619 86.0405H229.401C229.287 86.0404 229.177 85.9949 229.096 85.9142C229.015 85.8334 228.97 85.7238 228.97 85.6096V74.2988C228.969 74.2343 228.984 74.1706 229.012 74.1124C229.04 74.0543 229.08 74.0032 229.131 73.9629L232.22 71.4831C232.297 71.4217 232.392 71.3882 232.49 71.3882H240.619Z" fill="white"/>
<path d="M231.558 76.5597H238.461C238.576 76.5597 238.686 76.5143 238.766 76.4334C238.847 76.3526 238.893 76.243 238.893 76.1287C238.893 76.0144 238.847 75.9048 238.766 75.824C238.686 75.7432 238.576 75.6978 238.461 75.6978H231.558C231.444 75.6978 231.334 75.7432 231.253 75.824C231.172 75.9048 231.127 76.0144 231.127 76.1287C231.127 76.243 231.172 76.3526 231.253 76.4334C231.334 76.5143 231.444 76.5597 231.558 76.5597Z" fill="white"/>
<path d="M231.558 79.1453H238.461C238.576 79.1453 238.686 79.0999 238.766 79.0191C238.847 78.9383 238.893 78.8287 238.893 78.7144C238.893 78.6001 238.847 78.4905 238.766 78.4097C238.686 78.3288 238.576 78.2834 238.461 78.2834H231.558C231.444 78.2834 231.334 78.3288 231.253 78.4097C231.172 78.4905 231.127 78.6001 231.127 78.7144C231.127 78.8287 231.172 78.9383 231.253 79.0191C231.334 79.0999 231.444 79.1453 231.558 79.1453Z" fill="white"/>
<path d="M231.558 81.731H238.461C238.576 81.731 238.686 81.6856 238.766 81.6048C238.847 81.524 238.893 81.4144 238.893 81.3001C238.893 81.1858 238.847 81.0762 238.766 80.9954C238.686 80.9145 238.576 80.8691 238.461 80.8691H231.558C231.444 80.8691 231.334 80.9145 231.253 80.9954C231.172 81.0762 231.127 81.1858 231.127 81.3001C231.127 81.4144 231.172 81.524 231.253 81.6048C231.334 81.6856 231.444 81.731 231.558 81.731Z" fill="white"/>
<path d="M155.193 89.0571C148.045 89.0571 142.25 83.2688 142.25 76.1285C142.25 68.9883 148.045 63.2 155.193 63.2C162.341 63.2 168.136 68.9883 168.136 76.1285C168.136 83.2688 162.341 89.0571 155.193 89.0571Z" fill="#1D73F8"/>
<path d="M149.153 80.8691H161.233C161.576 80.8688 161.905 80.7324 162.148 80.4901C162.391 80.2477 162.527 79.919 162.528 79.5763V72.681C162.527 72.3383 162.391 72.0096 162.148 71.7673C161.905 71.5249 161.576 71.3886 161.233 71.3882H149.153C148.81 71.3886 148.481 71.5249 148.238 71.7673C147.995 72.0096 147.859 72.3383 147.859 72.681V79.5763C147.859 79.919 147.995 80.2477 148.238 80.4901C148.481 80.7324 148.81 80.8688 149.153 80.8691ZM161.233 72.2501C161.348 72.2502 161.457 72.2956 161.538 72.3764C161.619 72.4572 161.665 72.5668 161.665 72.681V79.5763C161.665 79.6905 161.619 79.8001 161.538 79.8809C161.457 79.9617 161.348 80.0071 161.233 80.0072H149.153C149.038 80.0071 148.929 79.9617 148.848 79.8809C148.767 79.8001 148.722 79.6905 148.721 79.5763V72.681C148.722 72.5668 148.767 72.4572 148.848 72.3764C148.929 72.2956 149.038 72.2502 149.153 72.2501H161.233Z" fill="white"/>
<path d="M155.193 77.2655C155.435 77.2659 155.673 77.1983 155.879 77.0705L162.325 73.0465C162.422 72.9858 162.49 72.8892 162.516 72.7779C162.541 72.6666 162.522 72.5497 162.461 72.4529C162.401 72.3561 162.304 72.2873 162.193 72.2615C162.081 72.2357 161.964 72.2551 161.867 72.3155L155.421 76.3395C155.353 76.382 155.273 76.4045 155.193 76.4045C155.112 76.4045 155.033 76.382 154.964 76.3395L148.519 72.3155C148.422 72.2551 148.305 72.2357 148.193 72.2615C148.082 72.2873 147.985 72.3561 147.925 72.4529C147.864 72.5497 147.844 72.6666 147.87 72.7779C147.895 72.8892 147.964 72.9858 148.061 73.0465L154.507 77.0705C154.713 77.1984 154.95 77.2659 155.193 77.2655Z" fill="white"/>
<path d="M314.395 140.341C307.247 140.341 301.452 134.552 301.452 127.412C301.452 120.272 307.247 114.483 314.395 114.483C321.544 114.483 327.339 120.272 327.339 127.412C327.339 134.552 321.544 140.341 314.395 140.341Z" fill="#1D73F8"/>
<path d="M308.355 132.152H320.435C320.779 132.152 321.108 132.016 321.35 131.773C321.593 131.531 321.729 131.202 321.73 130.86V123.964C321.729 123.622 321.593 123.293 321.35 123.051C321.108 122.808 320.779 122.672 320.435 122.672H308.355C308.012 122.672 307.683 122.808 307.44 123.051C307.198 123.293 307.061 123.622 307.061 123.964V130.86C307.061 131.202 307.198 131.531 307.44 131.773C307.683 132.016 308.012 132.152 308.355 132.152ZM320.435 123.533C320.55 123.534 320.659 123.579 320.74 123.66C320.821 123.741 320.867 123.85 320.867 123.964V130.86C320.867 130.974 320.821 131.083 320.74 131.164C320.659 131.245 320.55 131.29 320.435 131.291H308.355C308.241 131.29 308.131 131.245 308.05 131.164C307.969 131.083 307.924 130.974 307.924 130.86V123.964C307.924 123.85 307.969 123.741 308.05 123.66C308.131 123.579 308.241 123.534 308.355 123.533H320.435Z" fill="white"/>
<path d="M310.27 132.153H318.952C319.104 132.153 319.253 132.113 319.384 132.037C319.515 131.961 319.624 131.853 319.7 131.722C319.775 131.591 319.815 131.442 319.815 131.291C319.815 131.139 319.775 130.991 319.699 130.86L317.084 126.335C317.008 126.204 316.9 126.095 316.768 126.019C316.637 125.944 316.488 125.904 316.337 125.904C316.185 125.904 316.037 125.944 315.905 126.019C315.774 126.095 315.665 126.204 315.59 126.335L313.9 129.257L312.922 127.564C312.846 127.433 312.737 127.324 312.606 127.248C312.475 127.173 312.326 127.133 312.175 127.133C312.023 127.133 311.874 127.173 311.743 127.248C311.612 127.324 311.503 127.433 311.427 127.564L309.522 130.86C309.447 130.991 309.407 131.139 309.407 131.291C309.407 131.442 309.447 131.591 309.522 131.722C309.598 131.853 309.707 131.961 309.838 132.037C309.97 132.113 310.118 132.153 310.27 132.153H310.27ZM310.27 131.291L312.175 127.995L313.527 130.334C313.565 130.4 313.619 130.454 313.685 130.492C313.75 130.53 313.825 130.55 313.9 130.55C313.976 130.55 314.051 130.53 314.116 130.492C314.182 130.454 314.236 130.4 314.274 130.334L316.337 126.766L318.952 131.291H310.27Z" fill="white"/>
<path d="M309.65 126.119C309.173 126.119 308.787 125.733 308.787 125.257C308.787 124.781 309.173 124.395 309.65 124.395C310.126 124.395 310.512 124.781 310.512 125.257C310.512 125.733 310.126 126.119 309.65 126.119Z" fill="white"/>
<path d="M234.147 139.048C226.999 139.048 221.204 133.259 221.204 126.119C221.204 118.979 226.999 113.19 234.147 113.19C241.295 113.19 247.09 118.979 247.09 126.119C247.09 133.259 241.295 139.048 234.147 139.048Z" fill="#1D73F8"/>
<path d="M234.147 126.335C234.915 126.335 235.666 126.107 236.304 125.681C236.943 125.255 237.44 124.649 237.734 123.94C238.028 123.232 238.105 122.452 237.955 121.699C237.805 120.947 237.436 120.256 236.892 119.714C236.349 119.171 235.658 118.802 234.904 118.652C234.151 118.502 233.37 118.579 232.661 118.873C231.951 119.166 231.345 119.663 230.918 120.301C230.492 120.939 230.264 121.689 230.264 122.456C230.265 123.484 230.674 124.47 231.402 125.197C232.13 125.924 233.117 126.333 234.147 126.335ZM234.147 119.439C234.744 119.439 235.328 119.616 235.825 119.948C236.321 120.279 236.708 120.75 236.937 121.302C237.166 121.853 237.225 122.459 237.109 123.045C236.992 123.63 236.705 124.167 236.282 124.589C235.86 125.011 235.322 125.298 234.736 125.415C234.15 125.531 233.543 125.471 232.991 125.243C232.439 125.015 231.968 124.628 231.636 124.132C231.304 123.636 231.127 123.053 231.127 122.456C231.128 121.656 231.446 120.89 232.012 120.324C232.578 119.758 233.346 119.44 234.147 119.439Z" fill="white"/>
<path d="M230.695 133.661H237.598C237.999 133.66 238.382 133.501 238.666 133.219C238.949 132.936 239.108 132.552 239.108 132.152C239.108 130.838 238.586 129.578 237.655 128.648C236.725 127.719 235.463 127.197 234.147 127.197C232.831 127.197 231.569 127.719 230.638 128.648C229.708 129.578 229.185 130.838 229.185 132.152C229.186 132.552 229.345 132.936 229.628 133.219C229.911 133.501 230.295 133.66 230.695 133.661ZM234.147 128.058C235.233 128.06 236.275 128.491 237.044 129.259C237.812 130.026 238.244 131.067 238.246 132.152C238.245 132.324 238.177 132.488 238.056 132.609C237.934 132.731 237.77 132.799 237.598 132.799H230.695C230.524 132.799 230.359 132.731 230.238 132.609C230.117 132.488 230.048 132.324 230.048 132.152C230.049 131.067 230.482 130.026 231.25 129.259C232.018 128.491 233.06 128.06 234.147 128.058Z" fill="white"/>
<path d="M359.08 203.064H353.791L351.275 182.685L359.081 182.685L359.08 203.064Z" fill="#FFB8B8"/>
<path d="M343.59 207.969L360.214 207.97L360.214 201.555L350.013 201.554C348.31 201.554 346.676 202.23 345.471 203.433C344.267 204.636 343.59 206.268 343.59 207.969L343.59 207.969Z" fill="#2F2E41"/>
<path d="M378.927 203.064H373.637L371.121 182.685L378.927 182.685L378.927 203.064Z" fill="#FFB8B8"/>
<path d="M363.436 207.969L380.06 207.97L380.06 201.555L369.859 201.554C368.156 201.554 366.522 202.23 365.318 203.433C364.113 204.636 363.436 206.268 363.436 207.969L363.436 207.969Z" fill="#2F2E41"/>
<path d="M378.281 142.369C377.711 142.003 377.228 141.517 376.867 140.944C376.506 140.371 376.275 139.727 376.19 139.055C376.105 138.384 376.169 137.702 376.376 137.058C376.584 136.413 376.93 135.822 377.391 135.326L373.908 85.9573L383.941 86.9291L384.216 135.276C384.999 136.105 385.451 137.192 385.485 138.331C385.519 139.47 385.134 140.582 384.403 141.456C383.671 142.33 382.644 142.906 381.515 143.075C380.387 143.243 379.236 142.992 378.281 142.369H378.281Z" fill="#FFB8B8"/>
<path d="M358.923 192.8C359.397 192.799 359.855 192.624 360.21 192.309C360.565 191.995 360.793 191.562 360.851 191.091L363.925 165.405C363.968 165.044 364.141 164.71 364.412 164.465C364.682 164.221 365.032 164.083 365.397 164.076C365.761 164.069 366.116 164.195 366.395 164.429C366.675 164.663 366.86 164.99 366.916 165.35L370.789 189.943C370.859 190.401 371.092 190.818 371.444 191.118C371.796 191.419 372.244 191.583 372.707 191.581H378.985C379.241 191.581 379.495 191.531 379.731 191.432C379.968 191.334 380.182 191.19 380.363 191.008C380.543 190.826 380.686 190.611 380.783 190.374C380.879 190.137 380.928 189.883 380.926 189.627L377.93 135.097C377.929 134.633 377.76 134.185 377.455 133.835C377.149 133.485 376.728 133.257 376.268 133.192L352.972 129.815C352.696 129.775 352.413 129.795 352.145 129.874C351.877 129.953 351.629 130.088 351.418 130.272C351.207 130.456 351.038 130.682 350.924 130.937C350.809 131.192 350.75 131.468 350.752 131.748L351.158 190.597C351.162 191.093 351.355 191.569 351.699 191.927C352.043 192.284 352.511 192.497 353.007 192.52L358.83 192.798C358.861 192.799 358.892 192.8 358.923 192.8Z" fill="#2F2E41"/>
<path d="M371 137.157C373.241 137.149 375.463 136.753 377.569 135.989C377.926 135.857 378.236 135.623 378.46 135.316C378.684 135.009 378.812 134.643 378.828 134.263C379.029 129.808 380.205 106.879 383.628 92.892C384.293 90.1483 384.13 87.2692 383.16 84.6178C382.19 81.9663 380.455 79.661 378.176 77.9925C377.991 77.8604 377.804 77.7306 377.612 77.6032C375.633 76.2869 373.349 75.4984 370.978 75.3127C368.607 75.1271 366.228 75.5505 364.067 76.5427C361.835 77.5404 359.895 79.0921 358.433 81.0501C356.971 83.0081 356.034 85.3073 355.713 87.7289L350.131 129.122C350.095 129.381 350.112 129.644 350.181 129.896C350.25 130.148 350.37 130.384 350.533 130.588C350.692 130.791 350.891 130.96 351.117 131.084C351.344 131.208 351.593 131.284 351.85 131.309C353.784 131.502 357.796 132.25 362.93 135.1C365.398 136.466 368.178 137.174 371 137.157Z" fill="#3F3D56"/>
<path d="M377.824 102.845L387.01 100.358C387.506 100.222 387.929 99.8961 388.185 99.45C388.441 99.004 388.51 98.4748 388.375 97.9784L385.146 86.082C384.8 84.8077 383.994 83.7064 382.884 82.9905C381.773 82.2746 380.437 81.9948 379.132 82.205C377.827 82.4153 376.646 83.1007 375.817 84.129C374.988 85.1574 374.569 86.4559 374.642 87.7743L375.377 101.08C375.393 101.369 375.473 101.65 375.612 101.904C375.751 102.157 375.945 102.377 376.179 102.546C376.414 102.715 376.683 102.83 376.968 102.881C377.252 102.933 377.545 102.921 377.824 102.845Z" fill="#3F3D56"/>
<path d="M367.599 70.9223C361.746 70.9223 357.002 66.1834 357.002 60.3377C357.002 54.492 361.746 49.7531 367.599 49.7531C373.451 49.7531 378.195 54.492 378.195 60.3377C378.195 66.1834 373.451 70.9223 367.599 70.9223Z" fill="#FFB8B8"/>
<path d="M329.199 81.1331C329.252 81.3657 329.286 81.602 329.302 81.84L347.835 92.5198L352.34 89.9294L357.143 96.2093L347.506 103.07L326.361 86.4086C325.499 86.7273 324.56 86.7763 323.669 86.5489C322.778 86.3216 321.978 85.8287 321.374 85.1359C320.77 84.443 320.392 83.583 320.29 82.6702C320.187 81.7574 320.366 80.8352 320.801 80.026C321.236 79.2169 321.907 78.5593 322.726 78.1406C323.544 77.7219 324.471 77.562 325.382 77.6822C326.294 77.8024 327.148 78.1969 327.829 78.8134C328.511 79.4298 328.988 80.239 329.199 81.1331V81.1331Z" fill="#FFB8B8"/>
<path d="M349.372 93.0351L357.355 98.2103C357.787 98.4897 358.313 98.5864 358.816 98.4794C359.32 98.3723 359.76 98.0702 360.041 97.6392L366.758 87.2997C367.478 86.1922 367.761 84.8578 367.554 83.5537C367.347 82.2497 366.664 81.0685 365.637 80.2378C364.609 79.407 363.31 78.9857 361.99 79.055C360.67 79.1243 359.423 79.6792 358.488 80.6129L349.055 90.0372C348.851 90.2415 348.695 90.4889 348.598 90.7613C348.502 91.0337 348.467 91.3242 348.497 91.6115C348.528 91.8989 348.622 92.1758 348.773 92.4221C348.924 92.6684 349.129 92.8779 349.372 93.0351Z" fill="#3F3D56"/>
<path d="M375.097 68.7118C373.12 70.8152 369.449 69.686 369.191 66.8125C369.171 66.5894 369.173 66.3649 369.196 66.1421C369.329 64.8692 370.065 63.7137 369.889 62.3697C369.849 62.0352 369.724 61.7165 369.526 61.4436C367.951 59.3365 364.253 62.3861 362.766 60.4786C361.855 59.309 362.926 57.4675 362.227 56.1602C361.303 54.4349 358.569 55.286 356.853 54.3411C354.945 53.2898 355.059 50.3655 356.316 48.5867C357.847 46.4175 360.533 45.26 363.186 45.0932C365.838 44.9264 368.472 45.6425 370.948 46.6064C373.762 47.7016 376.552 49.2152 378.283 51.6863C380.389 54.6914 380.591 58.7315 379.538 62.2454C378.898 64.3829 376.711 66.9941 375.097 68.7118Z" fill="#2F2E41"/>
<path d="M333.167 208H393.569C393.683 208 393.793 207.955 393.874 207.874C393.955 207.793 394 207.683 394 207.569C394 207.455 393.955 207.345 393.874 207.264C393.793 207.184 393.683 207.138 393.569 207.138H333.167C333.052 207.138 332.942 207.184 332.861 207.264C332.781 207.345 332.735 207.455 332.735 207.569C332.735 207.683 332.781 207.793 332.861 207.874C332.942 207.955 333.052 208 333.167 208Z" fill="#3F3D56"/>
</g>
<defs>
<clipPath id="clip0_225_4175">
<rect width="394" height="208" fill="white" transform="matrix(-1 0 0 1 394 0)"/>
</clipPath>
</defs>
</svg>
