<svg width="88" height="88" viewBox="0 0 88 88" fill="none" xmlns="http://www.w3.org/2000/svg">
<circle cx="44" cy="44" r="43.5" fill="#8B91A4" stroke="#E8E9ED"/>
<path d="M65.9701 50.3538C64.1991 48.7328 61.9029 47.8402 59.5046 47.8402C56.1709 47.8402 53.1387 49.5348 51.3964 52.3162C49.9756 51.466 49.2264 50.892 48.8328 50.5191V47.8568C52.1519 45.9488 54.4234 42.5345 55.1505 38.3576C57.0403 37.8182 58.6848 36.0537 58.6848 34.432C58.6848 32.7846 57.4472 31.6905 55.4008 31.4639V29.5211C55.4169 29.056 55.5596 22.6502 51.5421 18.4688C49.3308 16.167 46.301 15 42.5371 15C38.7632 15 35.7278 16.1694 33.5156 18.4756C29.5059 22.6556 29.6562 29.0505 29.6732 29.5216V31.4639C27.6266 31.6905 26.3892 32.7846 26.3892 34.432C26.3892 36.0537 28.0339 37.818 29.9235 38.3576C30.6508 42.5353 32.9229 45.95 36.2412 47.857V50.5169C35.2036 51.4962 32.7944 52.861 31.8178 53.3754C21.1474 56.8378 20.9202 63.1594 20.9159 63.4273L20.9158 67H60.0519V66.984C65.0807 66.6992 69.0843 62.5187 69.0843 57.42C69.0842 54.7353 67.9491 52.1598 65.9701 50.3538ZM52.4329 53.8186C53.7901 51.1457 56.4996 49.4852 59.5046 49.4852C61.202 49.4852 62.8367 50.0269 64.1923 51.022L53.1063 62.1077C52.1112 60.7523 51.5695 59.1174 51.5695 57.42C51.5695 56.1655 51.8603 54.9533 52.4329 53.8186ZM34.7027 19.6142C36.5927 17.6439 39.2286 16.6448 42.5371 16.6448C45.8319 16.6448 48.4604 17.6394 50.349 19.601C53.163 22.5233 53.6611 26.8788 53.7435 28.6648C46.7293 28.3678 40.2977 24.4674 40.2313 24.4266L39.6781 24.0863L39.2187 24.5456C35.8473 27.9171 32.7424 28.8633 31.3151 29.1281C31.3296 27.791 31.6009 22.8476 34.7027 19.6142ZM31.4635 37.5597L31.3781 36.941L30.7592 36.8571C29.5692 36.6959 28.0339 35.4909 28.0339 34.4319C28.0339 33.1636 29.9182 33.065 30.4954 33.065H31.3179V30.7997C32.8246 30.5747 36.2035 29.6831 39.9266 26.1519C41.7037 27.1487 47.4241 30.072 53.7565 30.312L53.7559 33.0649H54.5784C55.1559 33.0649 57.0399 33.1635 57.0399 34.4318C57.0399 35.4908 55.5046 36.6958 54.3146 36.857L53.6957 36.9409L53.6103 37.5596C53.0458 41.6479 50.8662 44.958 47.6323 46.6404C46.0932 47.4366 44.3788 47.8402 42.5368 47.8402C40.6745 47.8402 38.9615 47.4372 37.443 46.6412C34.2077 44.958 32.0282 41.6479 31.4635 37.5597ZM47.188 48.6404V50.5351C46.6262 51.1224 44.8472 52.7662 42.5371 52.7662C40.242 52.7662 38.4505 51.1192 37.8861 50.5335V48.6449C39.3222 49.2021 40.8808 49.4851 42.5371 49.4851C44.1804 49.4851 45.7388 49.2007 47.188 48.6404ZM22.5607 65.355V63.4558C22.5661 63.3591 22.6599 62.0397 23.8285 60.3897C25.8864 57.4838 29.62 55.8107 32.3898 54.9189L32.4562 54.8974L32.5181 54.865C32.8587 54.6872 35.5042 53.2902 37.0357 52.0076C37.9827 52.899 39.9678 54.411 42.537 54.411C45.1041 54.411 47.0881 52.9012 48.0359 52.0096C48.6456 52.5214 49.5096 53.1083 50.6431 53.7822C50.1662 54.9431 49.9244 56.1633 49.9244 57.4199C49.9244 59.8187 50.8175 62.1153 52.4382 63.8855C52.9486 64.445 53.5207 64.9369 54.1393 65.3548H22.5607V65.355ZM59.5045 65.355C57.5447 65.355 55.6564 64.6244 54.2116 63.3287L65.4133 52.1271C66.7086 53.5714 67.4395 55.4601 67.4395 57.42C67.4394 61.7954 63.8799 65.355 59.5045 65.355Z" fill="#F3F4F6"/>
</svg>
