<svg width="88" height="88" viewBox="0 0 88 88" fill="none" xmlns="http://www.w3.org/2000/svg">
<circle cx="44" cy="44" r="43.5" fill="#8B91A4" stroke="#E8E9ED"/>
<g clip-path="url(#clip0_91_9217)">
<path d="M55.431 16.9792H27.2647C25.9568 16.9792 24.8999 18.0361 24.8999 19.3441V67.9876C24.8999 69.2559 25.9304 70.2864 27.1986 70.2864H63.7012C64.9694 70.2864 65.9999 69.2559 65.9999 67.9876V27.5482L55.431 16.9792ZM56.0122 20.3613L62.6178 26.9669H56.0122V20.3613ZM26.8816 68.3047V20.6652C26.8816 19.7272 27.6478 18.9609 28.5858 18.9609H54.0306V28.9486H64.0182V67.0496C64.0182 67.7366 63.4634 68.2915 62.7764 68.2915L26.8816 68.3047Z" fill="#F3F4F6"/>
<path d="M32.2056 32.5156H39.4981V25.2231H32.2056V32.5156ZM34.1872 27.2047H37.5165V30.5339H34.1872V27.2047Z" fill="#F3F4F6"/>
<path d="M32.2056 42.358H39.4981V35.0654H32.2056V42.358ZM34.1872 37.0471H37.5165V40.3763H34.1872V37.0471Z" fill="#F3F4F6"/>
<path d="M32.2056 52.2003H39.4981V44.9077H32.2056V52.2003ZM34.1872 46.8894H37.5165V50.2186H34.1872V46.8894Z" fill="#F3F4F6"/>
<path d="M32.2056 62.0426H39.4981V54.75H32.2056V62.0426ZM34.1872 56.7317H37.5165V60.0609H34.1872V56.7317Z" fill="#F3F4F6"/>
<path d="M57.4523 60.061H42.2991V62.0426H57.4523V60.061Z" fill="#F3F4F6"/>
<path d="M57.4523 50.2186H42.2991V52.2003H57.4523V50.2186Z" fill="#F3F4F6"/>
<path d="M57.4523 40.3763H42.2991V42.358H57.4523V40.3763Z" fill="#F3F4F6"/>
<path d="M57.4523 30.534H42.2991V32.5156H57.4523V30.534Z" fill="#F3F4F6"/>
</g>
<defs>
<clipPath id="clip0_91_9217">
<rect width="41.1" height="53.3071" fill="white" transform="translate(24.8999 16.9792)"/>
</clipPath>
</defs>
</svg>
