<svg width="78" height="99" viewBox="0 0 78 99" fill="none" xmlns="http://www.w3.org/2000/svg">
<g clip-path="url(#clip0_219_6643)">
<path d="M55.5682 0.202026H2.46569C1.02236 0.202026 0 1.39861 0 2.83451V95.6294C0 97.0653 1.02236 98.2619 2.46569 98.2619H75.4742C76.9175 98.2619 78 97.0653 78 95.6294V20.0653H59.0563C57.1318 20.0653 55.5682 18.5695 55.5682 16.7747V0.202026Z" fill="#1D73F8"/>
<path d="M50.0356 42.0823H27.9646C26.6416 42.0823 25.5591 41.0054 25.5591 39.6892C25.5591 38.3729 26.6416 37.296 27.9646 37.296H50.0957C51.4188 37.296 52.5013 38.3729 52.5013 39.6892C52.5013 41.0054 51.3586 42.0823 50.0356 42.0823Z" fill="white"/>
<path d="M61.6422 55.9627H16.3577C15.0346 55.9627 13.9521 54.8858 13.9521 53.5696C13.9521 52.2533 15.0346 51.1764 16.3577 51.1764H61.6422C62.9653 51.1764 64.0478 52.2533 64.0478 53.5696C64.0478 54.8858 62.9653 55.9627 61.6422 55.9627Z" fill="white"/>
<path d="M61.522 69.8431H16.4781C15.155 69.8431 14.0725 68.7662 14.0725 67.4499C14.0725 66.1337 15.155 65.0568 16.4781 65.0568H61.4619C62.7849 65.0568 63.8674 66.1337 63.8674 67.4499C63.8674 68.7662 62.8451 69.8431 61.522 69.8431Z" fill="white"/>
<path d="M55.5684 0.202026V20.0653H78.0001L55.5684 0.202026Z" fill="#6CA4F4"/>
</g>
<defs>
<clipPath id="clip0_219_6643">
<rect width="78" height="98" fill="white" transform="translate(0 0.202026)"/>
</clipPath>
</defs>
</svg>
