<svg id="ef367a0a-8a81-4312-88f7-5065a17e0b42" data-name="Capa 1" xmlns="http://www.w3.org/2000/svg" xmlns:xlink="http://www.w3.org/1999/xlink" viewBox="0 0 78 98"><defs><clipPath id="f642104f-6b55-475e-a03e-95ad4757bce7" transform="translate(0 -0.2)"><rect y="0.2" width="78" height="98" fill="none"/></clipPath></defs><title>examen_teorico_b</title><g clip-path="url(#f642104f-6b55-475e-a03e-95ad4757bce7)"><path d="M55.6.2V20.1H78Z" transform="translate(0 -0.2)" fill="#6ca4f4"/></g><path d="M59.1,20.1a3.44,3.44,0,0,1-3.5-3.3V.2H2.5A2.5,2.5,0,0,0,0,2.8V95.6a2.5,2.5,0,0,0,2.5,2.6h73A2.56,2.56,0,0,0,78,95.6V20.1ZM57.4,69.7s-3,4.1-3,6.6l-.3,7.2H32.3l-1.2-3.9H26.6A7.82,7.82,0,0,1,20.3,73V67.4a.52.52,0,0,0-.2-.4l-3.4-2.1s-.8-.9,0-2.8l4.3-7a1.85,1.85,0,0,0,.2-.7c.3-2.6,2.7-17.9,19.6-17.7,18.5.2,20.7,16.3,20.7,19.1S62.5,62.9,57.4,69.7Z" transform="translate(0 -0.2)" fill="#1d73f8"/></svg>