<?xml version="1.0" encoding="utf-8"?>
<!-- Generator: Adobe Illustrator 23.0.1, SVG Export Plug-In . SVG Version: 6.00 Build 0)  -->
<svg version="1.1" id="Capa_1" xmlns="http://www.w3.org/2000/svg" xmlns:xlink="http://www.w3.org/1999/xlink" x="0px" y="0px"
	 viewBox="0 0 78 99" style="enable-background:new 0 0 78 99;" xml:space="preserve">
<style type="text/css">
	.st0{clip-path:url(#SVGID_2_);fill:#6CA4F4;}
	.st1{fill:#1D73F8;}
</style>
<g>
	<defs>
		<rect id="SVGID_1_" y="0.2" width="78" height="98"/>
	</defs>
	<clipPath id="SVGID_2_">
		<use xlink:href="#SVGID_1_"  style="overflow:visible;"/>
	</clipPath>
	<path class="st0" d="M55.6,0.2v19.9H78L55.6,0.2z"/>
</g>
<path class="st1" d="M59.1,20.1c-1.9,0-3.5-1.5-3.5-3.3V0.2H2.5C1,0.2,0,1.4,0,2.8v92.8c0,1.4,1,2.6,2.5,2.6h73
	c1.4,0,2.5-1.2,2.5-2.6V20.1H59.1z M34.6,75.1H17.4c-1.3,0-2.5-1.1-2.5-2.5s1.1-2.5,2.5-2.5h17.2c1.3,0,2.5,1.1,2.5,2.5
	S36,75.1,34.6,75.1z M34.6,55.4H17.4c-1.3,0-2.5-1.1-2.5-2.5s1.1-2.5,2.5-2.5h17.2c1.3,0,2.5,1.1,2.5,2.5S36,55.4,34.6,55.4z
	 M62.3,67.8L51.9,78.2c-1,1-2.5,1-3.5,0L43.2,73c-1-1-1-2.5,0-3.5c1-1,2.5-1,3.5,0l3.5,3.5l8.7-8.7c1-1,2.5-1,3.5,0
	S63.3,66.8,62.3,67.8z M62.3,48.2L51.9,58.6c-1,1-2.5,1-3.5,0l-5.2-5.2c-1-1-1-2.5,0-3.5s2.5-1,3.5,0l3.5,3.5l8.7-8.7
	c1-1,2.5-1,3.5,0S63.3,47.2,62.3,48.2z"/>
</svg>
