<?xml version="1.0" encoding="utf-8"?>
<!-- Generator: Adobe Illustrator 23.0.1, SVG Export Plug-In . SVG Version: 6.00 Build 0)  -->
<svg version="1.1" id="Capa_1" xmlns="http://www.w3.org/2000/svg" xmlns:xlink="http://www.w3.org/1999/xlink" x="0px" y="0px"
	 viewBox="0 0 78 99" style="enable-background:new 0 0 78 99;" xml:space="preserve">
<style type="text/css">
	.st0{clip-path:url(#SVGID_2_);fill:#6CA4F4;}
	.st1{fill:#1D73F8;}
</style>
<g>
	<defs>
		<rect id="SVGID_1_" y="0.2" width="78" height="98"/>
	</defs>
	<clipPath id="SVGID_2_">
		<use xlink:href="#SVGID_1_"  style="overflow:visible;"/>
	</clipPath>
	<path class="st0" d="M55.6,0.2v19.9H78L55.6,0.2z"/>
</g>
<path class="st1" d="M59.1,20.1c-1.9,0-3.5-1.5-3.5-3.3V0.2H2.5C1,0.2,0,1.4,0,2.8v92.8c0,1.4,1,2.6,2.5,2.6h73
	c1.4,0,2.5-1.2,2.5-2.6V20.1H59.1z M57.4,69.7c0,0-3,4.1-3,6.6l-0.3,7.2H32.3l-1.2-3.9h-4.5c0,0-5.4-0.8-6.3-6.6v-5.6
	c0-0.2-0.1-0.3-0.2-0.4l-3.4-2.1c0,0-0.8-0.9,0-2.8l4.3-7c0.1-0.2,0.2-0.5,0.2-0.7c0.3-2.6,2.7-17.9,19.6-17.7
	c18.5,0.2,20.7,16.3,20.7,19.1C61.6,58.6,62.5,62.9,57.4,69.7z"/>
</svg>
