<svg width="88" height="88" viewBox="0 0 88 88" fill="none" xmlns="http://www.w3.org/2000/svg">
<circle cx="44" cy="44" r="43.5" fill="#8B91A4" stroke="#E8E9ED"/>
<path d="M44.0543 70.5458L46.704 69.4534C48.1208 68.8694 48.7913 67.2363 48.2073 65.8303L47.526 64.1864C48.8562 63.2022 50.0135 62.0342 51.0085 60.7039L52.6524 61.3853C53.3337 61.6665 54.0908 61.6665 54.7722 61.3853C55.4535 61.1041 55.9943 60.5633 56.2755 59.882L57.3786 57.2322C57.9627 55.8154 57.2921 54.1931 55.8753 53.6091L53.4419 52.6033C52.8903 52.3762 52.2739 52.6358 52.0467 53.1873C51.8196 53.7389 52.0792 54.3554 52.6308 54.5825L55.0642 55.5883C55.3886 55.7181 55.5401 56.0966 55.4103 56.4211L54.3071 59.0708C54.2422 59.2222 54.1233 59.352 53.961 59.4169C53.8096 59.4818 53.6366 59.4818 53.4743 59.4169L51.0409 58.4111C50.565 58.2164 50.0243 58.3786 49.7431 58.8004C48.6508 60.4443 47.2664 61.8287 45.6225 62.921C45.2007 63.2022 45.0277 63.7538 45.2223 64.2189L46.2281 66.6523C46.3579 66.9767 46.2065 67.3445 45.8821 67.4851L43.2323 68.5774C43.0809 68.6423 42.9079 68.6423 42.7456 68.5774C42.5942 68.5125 42.4644 68.3935 42.3996 68.2313L41.3937 65.7979C41.1991 65.322 40.7016 65.0516 40.1932 65.1598C38.2681 65.5491 36.2998 65.5383 34.3747 65.1598C33.8772 65.0624 33.3688 65.3328 33.1742 65.7979L32.1684 68.2313C32.0386 68.5558 31.66 68.7072 31.3356 68.5774L28.6859 67.4742C28.5344 67.4094 28.4047 67.2904 28.3398 67.1282C28.2749 66.9767 28.2749 66.8037 28.3398 66.6415L29.3456 64.208C29.5403 63.7322 29.378 63.1914 28.9562 62.9102C27.3123 61.8179 25.928 60.4335 24.8356 58.7896C24.5544 58.3678 24.0029 58.1948 23.5378 58.3895L21.1044 59.3953C20.9421 59.4602 20.7799 59.4602 20.6177 59.3953C20.4663 59.3304 20.3365 59.2114 20.2716 59.0492L19.1793 56.3995C19.1144 56.248 19.1144 56.075 19.1793 55.9128C19.2442 55.7614 19.3631 55.6316 19.5254 55.5667L21.9588 54.5609C22.4346 54.3662 22.6942 53.8687 22.5969 53.3604C22.2075 51.4353 22.2183 49.4669 22.5969 47.5418C22.6942 47.0443 22.4238 46.536 21.9588 46.3413L19.5254 45.3355C19.2009 45.2057 19.0495 44.8272 19.1793 44.5027L20.2824 41.853C20.4122 41.5285 20.7907 41.3771 21.1152 41.5069L23.5486 42.5127C24.0245 42.7074 24.5652 42.5451 24.8464 42.1234C25.9388 40.4794 27.3231 39.0951 28.967 38.0028C29.3888 37.7216 29.5619 37.17 29.3672 36.7049L28.3614 34.2715C28.2965 34.1201 28.2965 33.947 28.3614 33.7848C28.4263 33.6334 28.5453 33.5036 28.7075 33.4387L31.3572 32.3464C31.5086 32.2815 31.6817 32.2815 31.8439 32.3464C31.9953 32.4113 32.1251 32.5302 32.19 32.6925L33.1958 35.1259C33.4229 35.6775 34.0502 35.937 34.591 35.7099C35.1425 35.4828 35.4021 34.8555 35.175 34.3148L34.1692 31.8813C33.888 31.2 33.3472 30.6592 32.6659 30.378C32.3198 30.2374 31.9629 30.1617 31.606 30.1617C31.2491 30.1617 30.8813 30.2374 30.5461 30.378L27.8963 31.4704C27.215 31.7516 26.6742 32.2923 26.393 32.9737C26.1118 33.655 26.1118 34.4121 26.393 35.0935L27.0744 36.7374C25.7441 37.7216 24.5869 38.8896 23.5919 40.2199L21.948 39.5385C20.5312 38.9545 18.9089 39.625 18.3249 41.0418L17.2109 43.6916C16.6269 45.1084 17.2974 46.7306 18.7142 47.3147L20.3581 47.996C20.1202 49.6291 20.1202 51.2839 20.3581 52.917L18.7142 53.5983C18.0329 53.8795 17.4921 54.4203 17.2109 55.1016C16.9297 55.783 16.9297 56.5401 17.2109 57.2214L18.3032 59.8711C18.5844 60.5525 19.1252 61.0933 19.8066 61.3745C20.4879 61.6557 21.245 61.6557 21.9263 61.3745L23.5702 60.6931C24.5544 62.0234 25.7225 63.1806 27.0528 64.1756L26.3714 65.8195C26.0902 66.5009 26.0902 67.2579 26.3714 67.9393C26.6526 68.6207 27.1933 69.1614 27.8747 69.4426L30.5244 70.5458C31.9412 71.1298 33.5635 70.4592 34.1475 69.0425L34.8289 67.3985C36.462 67.6365 38.1167 67.6365 39.7498 67.3985L40.4312 69.0425C40.7124 69.7238 41.2531 70.2646 41.9345 70.5458C42.6159 70.827 43.3729 70.827 44.0543 70.5458Z" fill="#F3F4F6"/>
<path d="M28.5886 50.5268C28.621 55.3071 32.5253 59.1681 37.2948 59.1681C37.3165 59.1681 37.3381 59.1681 37.3597 59.1681C39.685 59.1465 41.8697 58.2272 43.5028 56.5725C45.1359 54.9178 46.0227 52.7223 46.0119 50.397C46.0119 49.813 45.5252 49.3371 44.9412 49.3371H44.9304C44.3355 49.3371 43.8597 49.8238 43.8705 50.4186C43.8813 52.1707 43.2108 53.8254 41.9778 55.08C40.7449 56.3346 39.101 57.0267 37.3489 57.0375C37.3381 57.0375 37.3165 57.0375 37.3056 57.0375C33.7042 57.0375 30.7624 54.1174 30.7408 50.516C30.7192 46.8929 33.6393 43.9295 37.2624 43.897C37.8572 43.897 38.3331 43.4104 38.3223 42.8155C38.3223 42.2315 37.8356 41.7556 37.2516 41.7556C37.2516 41.7556 37.2516 41.7556 37.2408 41.7556C32.428 41.7881 28.5561 45.7248 28.5886 50.5268Z" fill="#F3F4F6"/>
<path d="M55.3668 18.2433H53.2795C52.0033 18.2433 50.965 19.2816 50.965 20.5578V21.6285C49.9268 21.9097 48.9318 22.3207 48.0017 22.8614L47.2446 22.1044C46.812 21.6718 46.228 21.423 45.6115 21.423C44.995 21.423 44.411 21.661 43.9784 22.1044L42.5075 23.5753C42.0749 24.0079 41.8262 24.5919 41.8262 25.2084C41.8262 25.8248 42.0641 26.4088 42.5075 26.8414L43.2646 27.5985C42.7238 28.5286 42.3128 29.5236 42.0316 30.5619H40.9609C39.6847 30.5619 38.6465 31.6001 38.6465 32.8763V34.9637C38.6465 36.2399 39.6847 37.2781 40.9609 37.2781H42.0316C42.3128 38.3164 42.7238 39.3114 43.2646 40.2415L42.5075 40.9986C42.0749 41.4312 41.8262 42.0152 41.8262 42.6317C41.8262 43.2481 42.0641 43.8322 42.5075 44.2648L43.9784 45.7356C44.411 46.1683 44.995 46.417 45.6115 46.417C46.228 46.417 46.812 46.1791 47.2446 45.7356L48.0017 44.9786C48.9318 45.5193 49.9268 45.9303 50.965 46.2115V47.2822C50.965 48.5584 52.0033 49.5967 53.2795 49.5967H55.3668C56.643 49.5967 57.6813 48.5584 57.6813 47.2822V46.2115C58.7195 45.9303 59.7145 45.5193 60.6446 44.9786L61.4017 45.7356C61.8343 46.1683 62.4183 46.417 63.0348 46.417C63.6513 46.417 64.2353 46.1791 64.6679 45.7356L66.1388 44.2648C67.0364 43.3671 67.0364 41.8962 66.1388 40.9986L65.3817 40.2415C65.9225 39.3114 66.3335 38.3164 66.6147 37.2781H67.6854C68.9616 37.2781 69.9998 36.2399 69.9998 34.9637V32.8763C69.9998 31.6001 68.9616 30.5619 67.6854 30.5619H66.6147C66.3335 29.5236 65.9225 28.5286 65.3817 27.5985L66.1388 26.8414C67.0364 25.9438 67.0364 24.4729 66.1388 23.5753L64.6679 22.1044C64.2353 21.6718 63.6513 21.423 63.0348 21.423C62.4183 21.423 61.8343 21.661 61.4017 22.1044L60.6446 22.8614C59.7145 22.3207 58.7195 21.9097 57.6813 21.6285V20.5578C57.6705 19.2816 56.6322 18.2433 55.3668 18.2433ZM60.2012 25.1002C60.3851 25.2192 60.5906 25.2841 60.7961 25.2841C61.0773 25.2841 61.3476 25.1759 61.5531 24.9704L62.905 23.6185C62.9483 23.5753 62.9916 23.5644 63.024 23.5644C63.0564 23.5644 63.0997 23.5753 63.143 23.6185L64.6138 25.0894C64.6787 25.1543 64.6787 25.2624 64.6138 25.3273L63.2619 26.6792C62.905 27.0361 62.8401 27.6093 63.1321 28.0311C63.9108 29.1884 64.4408 30.4754 64.7112 31.8381C64.8085 32.3356 65.2519 32.7033 65.7602 32.7033H67.6745C67.7719 32.7033 67.8476 32.779 67.8476 32.8763V34.9637C67.8476 35.061 67.7719 35.1367 67.6745 35.1367H65.7602C65.2519 35.1367 64.8085 35.4936 64.7112 36.0019C64.4408 37.3647 63.9108 38.6517 63.1321 39.8089C62.851 40.2307 62.905 40.8039 63.2619 41.1608L64.6138 42.5127C64.6787 42.5776 64.6787 42.6858 64.6138 42.7506L63.143 44.2215C63.0997 44.2648 63.0564 44.2756 63.024 44.2756C62.9916 44.2756 62.9483 44.2648 62.905 44.2215L61.5531 42.848C61.1962 42.4911 60.623 42.4262 60.2012 42.7182C59.044 43.4969 57.757 44.0268 56.3943 44.2972C55.8968 44.3946 55.529 44.838 55.529 45.3463V47.2606C55.529 47.3579 55.4533 47.4336 55.356 47.4336H53.2687C53.1713 47.4336 53.0956 47.3579 53.0956 47.2606V45.3463C53.0956 44.838 52.7387 44.3946 52.2304 44.2972C50.8677 44.0268 49.5807 43.4969 48.4234 42.7182C48.0017 42.437 47.4284 42.4911 47.0715 42.848L45.7196 44.1999C45.6764 44.2431 45.6331 44.254 45.6007 44.254C45.5682 44.254 45.525 44.2431 45.4817 44.1999L44.0108 42.729C43.9676 42.6857 43.9568 42.6425 43.9568 42.61C43.9568 42.5776 43.9676 42.5343 44.0108 42.4911L45.3627 41.1392C45.7196 40.7823 45.7845 40.2091 45.4925 39.7873C44.7138 38.63 44.1839 37.343 43.9135 35.9803C43.8162 35.4828 43.3727 35.1151 42.8644 35.1151H40.9501C40.8528 35.1151 40.7771 35.0394 40.7771 34.9421V32.8547C40.7771 32.7574 40.8528 32.6817 40.9501 32.6817H42.8644C43.3727 32.6817 43.8162 32.3248 43.9135 31.8165C44.1839 30.4537 44.7138 29.1667 45.4925 28.0095C45.7737 27.5877 45.7196 27.0145 45.3627 26.6576L44.0108 25.3057C43.9676 25.2624 43.9568 25.2192 43.9568 25.1867C43.9568 25.1543 43.9676 25.111 44.0108 25.0678L45.4817 23.5969C45.525 23.5536 45.5682 23.5428 45.6007 23.5428C45.6331 23.5428 45.6764 23.5536 45.7196 23.5969L47.0715 24.9488C47.4284 25.3057 48.0017 25.3706 48.4234 25.0786C49.5807 24.2999 50.8677 23.7699 52.2304 23.4995C52.7279 23.4022 53.0956 22.9588 53.0956 22.4505V20.5578C53.0956 20.4605 53.1713 20.3848 53.2687 20.3848H55.356C55.4533 20.3848 55.529 20.4605 55.529 20.5578V22.4721C55.529 22.9804 55.886 23.4238 56.3943 23.5212C57.757 23.7916 59.044 24.3215 60.2012 25.1002Z" fill="#F3F4F6"/>
<path d="M47.9695 33.9038C47.9695 37.4079 50.8247 40.2631 54.3288 40.2631C57.833 40.2631 60.6882 37.4079 60.6882 33.9038C60.6882 30.3997 57.833 27.5444 54.3288 27.5444C50.8247 27.5444 47.9695 30.3997 47.9695 33.9038ZM58.536 33.9038C58.536 36.2291 56.6433 38.1217 54.318 38.1217C51.9927 38.1217 50.1001 36.2291 50.1001 33.9038C50.1001 31.5785 51.9927 29.6858 54.318 29.6858C56.6433 29.6858 58.536 31.5893 58.536 33.9038Z" fill="#F3F4F6"/>
</svg>
