<svg width="70" height="70" viewBox="0 0 70 70" fill="none" xmlns="http://www.w3.org/2000/svg">
<path d="M70 35C70 54.33 54.33 70 35 70C15.67 70 0 54.33 0 35C0 15.67 15.67 0 35 0C54.33 0 70 15.67 70 35Z" fill="#E7E8ED"/>
<path d="M44 21.5H39.23C38.6 19.76 36.95 18.5 35 18.5C33.05 18.5 31.4 19.76 30.77 21.5H26C24.35 21.5 23 22.85 23 24.5V47C23 48.65 24.35 50 26 50H35.165C34.28 49.145 33.56 48.125 33.035 47H26V24.5H29V26C29 27.65 30.35 29 32 29H38C39.65 29 41 27.65 41 26V24.5H44V32.12C45.065 32.27 46.07 32.585 47 33.02V24.5C47 22.85 45.65 21.5 44 21.5ZM35 24.5C34.175 24.5 33.5 23.825 33.5 23C33.5 22.175 34.175 21.5 35 21.5C35.825 21.5 36.5 22.175 36.5 23C36.5 23.825 35.825 24.5 35 24.5ZM42.5 35C38.36 35 35 38.36 35 42.5C35 46.64 38.36 50 42.5 50C46.64 50 50 46.64 50 42.5C50 38.36 46.64 35 42.5 35ZM44.435 45.5L41.96 43.025C41.825 42.89 41.735 42.695 41.735 42.5V38.765C41.735 38.345 42.065 38.015 42.485 38.015C42.905 38.015 43.235 38.345 43.235 38.765V42.2L45.485 44.45C45.785 44.75 45.785 45.215 45.485 45.515C45.2 45.8 44.735 45.8 44.435 45.5Z" fill="#4E597E"/>
</svg>
