<svg width="70" height="70" viewBox="0 0 70 70" fill="none" xmlns="http://www.w3.org/2000/svg">
<path d="M70 35C70 54.33 54.33 70 35 70C15.67 70 0 54.33 0 35C0 15.67 15.67 0 35 0C54.33 0 70 15.67 70 35Z" fill="#E7E8ED"/>
<path d="M32 35C35.3137 35 38 32.3137 38 29C38 25.6863 35.3137 23 32 23C28.6863 23 26 25.6863 26 29C26 32.3137 28.6863 35 32 35Z" fill="#4E597E"/>
<path d="M32.525 38.015C28.43 37.865 20 39.905 20 44V45.5C20 46.325 20.675 47 21.5 47H34.31C30.605 42.86 32.465 38.165 32.525 38.015Z" fill="#4E597E"/>
<path d="M46.145 44.03C46.85 42.83 47.195 41.375 46.865 39.8C46.355 37.34 44.285 35.375 41.795 35.06C37.85 34.55 34.52 37.865 35.045 41.81C35.375 44.3 37.325 46.37 39.785 46.88C41.36 47.21 42.815 46.865 44.015 46.16L46.805 48.95C47.39 49.535 48.335 49.535 48.92 48.95C49.505 48.365 49.505 47.42 48.92 46.835L46.145 44.03ZM41 44C39.35 44 38 42.65 38 41C38 39.35 39.35 38 41 38C42.65 38 44 39.35 44 41C44 42.65 42.65 44 41 44Z" fill="#4E597E"/>
</svg>
