<svg width="70" height="70" viewBox="0 0 70 70" fill="none" xmlns="http://www.w3.org/2000/svg">
<path d="M70 35C70 54.33 54.33 70 35 70C15.67 70 0 54.33 0 35C0 15.67 15.67 0 35 0C54.33 0 70 15.67 70 35Z" fill="#E7E8ED"/>
<path d="M45.5 21.5H39.23C38.6 19.76 36.95 18.5 35 18.5C33.05 18.5 31.4 19.76 30.77 21.5H24.5C22.85 21.5 21.5 22.85 21.5 24.5V45.5C21.5 47.15 22.85 48.5 24.5 48.5H45.5C47.15 48.5 48.5 47.15 48.5 45.5V24.5C48.5 22.85 47.15 21.5 45.5 21.5ZM35 21.5C35.825 21.5 36.5 22.175 36.5 23C36.5 23.825 35.825 24.5 35 24.5C34.175 24.5 33.5 23.825 33.5 23C33.5 22.175 34.175 21.5 35 21.5ZM30.935 41.435L27.05 37.55C26.465 36.965 26.465 36.02 27.05 35.435C27.635 34.85 28.58 34.85 29.165 35.435L32 38.255L40.82 29.435C41.405 28.85 42.35 28.85 42.935 29.435C43.52 30.02 43.52 30.965 42.935 31.55L33.05 41.435C32.48 42.02 31.52 42.02 30.935 41.435Z" fill="#4E597E"/>
</svg>
