<svg width="70" height="70" viewBox="0 0 70 70" fill="none" xmlns="http://www.w3.org/2000/svg">
<path d="M70 35C70 54.33 54.33 70 35 70C15.67 70 0 54.33 0 35C0 15.67 15.67 0 35 0C54.33 0 70 15.67 70 35Z" fill="#E7E8ED"/>
<path d="M47 26H35L32.885 23.885C32.315 23.315 31.55 23 30.755 23H23C21.35 23 20.015 24.35 20.015 26L20 44C20 45.65 21.35 47 23 47H47C48.65 47 50 45.65 50 44V29C50 27.35 48.65 26 47 26ZM39.5 30.5C41.15 30.5 42.5 31.85 42.5 33.5C42.5 35.15 41.15 36.5 39.5 36.5C37.85 36.5 36.5 35.15 36.5 33.5C36.5 31.85 37.85 30.5 39.5 30.5ZM45.5 42.5H33.5V41C33.5 39.005 37.505 38 39.5 38C41.495 38 45.5 39.005 45.5 41V42.5Z" fill="#4E597E"/>
</svg>
