<svg width="70" height="70" viewBox="0 0 70 70" fill="none" xmlns="http://www.w3.org/2000/svg">
<path d="M70 35C70 54.33 54.33 70 35 70C15.67 70 0 54.33 0 35C0 15.67 15.67 0 35 0C54.33 0 70 15.67 70 35Z" fill="#E7E8ED"/>
<path d="M39.5 35C42.815 35 45.5 32.315 45.5 29C45.5 25.685 42.815 23 39.5 23C36.185 23 33.5 25.685 33.5 29C33.5 32.315 36.185 35 39.5 35ZM26 32V29C26 28.175 25.325 27.5 24.5 27.5C23.675 27.5 23 28.175 23 29V32H20C19.175 32 18.5 32.675 18.5 33.5C18.5 34.325 19.175 35 20 35H23V38C23 38.825 23.675 39.5 24.5 39.5C25.325 39.5 26 38.825 26 38V35H29C29.825 35 30.5 34.325 30.5 33.5C30.5 32.675 29.825 32 29 32H26ZM39.5 38C35.495 38 27.5 40.01 27.5 44V45.5C27.5 46.325 28.175 47 29 47H50C50.825 47 51.5 46.325 51.5 45.5V44C51.5 40.01 43.505 38 39.5 38Z" fill="#4E597E"/>
</svg>
