<svg width="79" height="78" viewBox="0 0 79 78" fill="none" xmlns="http://www.w3.org/2000/svg">
<path d="M29.2146 36.6281C29.1663 35.8772 29.456 35.2716 29.9872 34.7629C31.4117 33.3337 32.8121 31.9288 34.2366 30.4996C35.154 29.5791 36.651 29.5064 37.6168 30.3784C38.8723 31.5169 40.0312 32.7039 41.1901 33.9393C42.1559 34.9567 42.1076 36.507 41.1177 37.5002C39.7173 38.9051 38.2928 40.3101 36.8441 41.6909C35.7094 42.7809 34.2124 42.7325 33.1018 41.6424C32.0636 40.6008 31.0254 39.5592 29.9872 38.5176C29.4801 37.9847 29.1904 37.3791 29.2146 36.6281Z" fill="white"/>
<path d="M50.9444 26.5753C50.9927 27.2051 50.7271 27.7865 50.2684 28.2468C48.9646 29.6033 47.6608 30.9356 46.357 32.2679C45.9224 32.7039 45.4636 33.0915 44.8359 33.2126C43.7977 33.4064 42.9526 33.1399 42.2283 32.3648C41.3108 31.3716 40.3934 30.4027 39.3793 29.5064C38.0514 28.3679 37.9548 26.6722 39.1861 25.4368C40.5865 24.0561 41.9869 22.6996 43.3872 21.3188C44.4254 20.2772 45.9707 20.4468 46.9123 21.3673C48.0229 22.4573 49.1336 23.5716 50.2442 24.7101C50.7995 25.2673 50.9444 25.776 50.9444 26.5753Z" fill="white"/>
<path d="M59.2742 35.3927C59.2742 36.2405 59.0086 36.8946 58.5015 37.4517C57.2943 38.8082 56.0871 40.1647 54.8558 41.497C53.89 42.5387 52.3448 42.8536 51.1134 41.4486C50.2925 40.4797 49.3509 39.6318 48.4817 38.7113C47.4918 37.6697 47.4435 36.1921 48.4334 35.1505C49.8338 33.6728 51.2341 32.1952 52.6586 30.7175C53.5761 29.7486 54.9765 29.7486 55.894 30.7418C56.8839 31.7834 57.8255 32.8734 58.743 33.9635C59.1051 34.3753 59.2742 34.9082 59.2742 35.3927Z" fill="white"/>
<path d="M41.6247 17.3704C41.6247 18.1697 41.2384 18.7269 40.6831 19.2114C39.6207 20.1803 38.6067 21.1735 37.5685 22.1666C37.158 22.5542 36.7717 22.966 36.3371 23.3051C35.5404 23.9592 34.0676 24.1045 33.1501 23.2325C32.136 22.2635 31.122 21.2704 30.0838 20.3014C28.9007 19.1871 29.1421 17.7095 30.2286 16.7163C31.5566 15.5051 32.9086 14.3182 34.2366 13.0828C35.2748 12.1138 36.7476 12.0412 37.8341 12.9859C38.8481 13.8579 39.8622 14.7542 40.8521 15.6505C41.4074 16.135 41.673 16.7405 41.6247 17.3704Z" fill="white"/>
<path d="M27.0657 50.266C26.2931 50.266 25.6895 49.9995 25.1583 49.5151C24.096 48.4977 23.0336 47.456 22.0437 46.366C21.2711 45.4939 21.0538 44.1132 22.0679 43.12C23.2026 41.9815 24.2408 40.7703 25.3515 39.6076C26.1724 38.7113 27.6693 38.6387 28.5627 39.4865C29.7699 40.6492 30.9529 41.812 32.1119 43.0231C33.0776 44.0163 33.0052 45.397 32.0153 46.366C30.8081 47.5529 29.5526 48.6915 28.2971 49.83C27.9349 50.1449 27.5003 50.266 27.0657 50.266Z" fill="white"/>
<path d="M53.1657 24.2983C52.4896 24.2983 51.9343 24.0803 51.4756 23.6443C50.2925 22.4815 49.1094 21.3188 47.9505 20.1076C47.1296 19.2356 46.9606 17.8064 47.9988 16.8617C49.1336 15.8443 50.2684 14.8027 51.379 13.7368C52.2482 12.889 53.383 13.0343 54.2763 13.6399C54.9282 14.1002 55.4352 14.7058 56.0147 15.2871C56.57 15.8443 57.1253 16.4014 57.6806 16.9586C58.1152 17.4188 58.3325 17.9759 58.4291 18.5815C58.5015 19.0902 58.3567 19.5747 58.0187 19.9623C56.908 21.1977 55.7732 22.4331 54.6385 23.6685C54.2522 24.1045 53.721 24.3225 53.1657 24.2983Z" fill="white"/>
<path d="M36.2647 47.9405C37.1097 47.8921 37.7375 48.3281 38.3411 48.861C39.2827 49.7089 40.2485 50.5325 41.1901 51.3803C42.0834 52.1797 42.18 53.3909 41.1901 54.2145C40.3209 54.9412 39.4034 55.5952 38.5101 56.2977C38.1479 56.5884 37.7616 56.8548 37.3753 57.1455C36.482 57.8238 35.0333 57.8722 34.14 57.194C32.9811 56.3219 31.798 55.4741 30.7356 54.4567C29.8665 53.6089 29.9872 52.5188 30.9047 51.7437C32.0877 50.7505 33.2466 49.6846 34.4056 48.6673C34.9367 48.1828 35.5404 47.8921 36.2647 47.9405Z" fill="white"/>
<path d="M18.6152 41.4486C17.9392 41.4486 17.4322 41.1822 17.0459 40.7219C16.2008 39.6803 15.3558 38.6629 14.5831 37.5728C13.9071 36.6523 13.7381 35.2958 14.728 34.0604C15.6455 32.9219 16.5147 31.7107 17.408 30.5722C18.2048 29.5791 19.3396 29.5064 20.2088 30.4511C21.1987 31.5169 22.1886 32.6312 23.1302 33.7455C23.927 34.6902 23.927 36.1194 23.0819 37.0884C21.9713 38.3964 20.8124 39.6561 19.6776 40.9399C19.3637 41.2791 19.0015 41.4486 18.6152 41.4486Z" fill="white"/>
<path d="M43.9184 15.3356C43.0492 15.3598 42.3973 14.948 41.7937 14.4151C40.9245 13.6399 40.0312 12.889 39.1378 12.138C38.5101 11.6293 38.0996 11.0238 38.2687 10.1517C38.3411 9.76413 38.5342 9.44922 38.824 9.20698C40.0795 8.23804 41.335 7.2691 42.6629 6.37282C43.677 5.69456 44.7393 5.81568 45.7292 6.44549C46.8881 7.1722 47.9264 8.04425 48.9887 8.9163C49.3992 9.25543 49.6889 9.69146 49.7372 10.2728C49.7613 10.8057 49.5923 11.2175 49.206 11.5567C47.9746 12.6225 46.7433 13.7126 45.5119 14.7784C45.0532 15.166 44.4979 15.3598 43.9184 15.3356Z" fill="white"/>
<path d="M20.5709 13.7611C20.9089 13.7368 21.1987 13.8822 21.416 14.1002C22.1644 14.8269 22.8888 15.5778 23.6372 16.3045C24.3616 17.007 24.3616 18.1698 23.7097 19.0902C23.4441 19.4536 23.1302 19.7927 22.8163 20.1319C21.6815 21.2946 20.5709 22.53 19.4844 23.7412C18.8567 24.4437 17.915 24.6375 17.1907 24.1772C17.07 24.1045 16.9493 24.0076 16.8768 23.8865C16.2491 23.0629 15.6213 22.2393 15.0177 21.4157C14.8004 21.125 14.728 20.7617 14.7521 20.3983C14.7763 19.6716 15.0177 18.9934 15.5248 18.4362C16.563 17.2008 17.6253 15.9896 18.6877 14.7542C19.1947 14.1971 19.7983 13.8337 20.5709 13.7611Z" fill="white"/>
<path d="M32.9328 9.69149C32.9569 10.2971 32.6913 10.7331 32.2809 11.0965C31.0012 12.235 29.6733 13.325 28.4419 14.512C28.2729 14.6816 28.0798 14.8511 27.9108 15.0207C26.9691 15.8443 25.6895 15.9896 24.8203 15.2145C24.5064 14.9238 24.1926 14.6331 23.8787 14.3424C23.4199 13.9306 22.9853 13.4946 22.5508 13.0828C22.0437 12.5983 22.0437 11.8474 22.5025 11.1449C22.9129 10.5393 23.4924 10.1275 24.0477 9.64304C24.941 8.84367 25.8827 8.09273 26.8001 7.3418C27.5486 6.73621 28.3695 6.44553 29.3594 6.59087C29.6009 6.63932 29.8182 6.73621 30.0355 6.88155C30.8081 7.4387 31.5807 7.99584 32.3533 8.55298C32.7396 8.81944 32.9569 9.20702 32.9328 9.69149Z" fill="white"/>
<path d="M19.4603 46.5114C20.1846 46.5356 20.6434 46.7294 21.0297 47.117C22.1886 48.2555 23.3475 49.3698 24.4581 50.5325C24.9893 51.0896 25.3032 51.7679 25.0135 52.5673C24.941 52.7853 24.7962 52.9306 24.6513 53.076C24.0477 53.6573 23.4199 54.166 22.768 54.6989C22.6956 54.7716 22.599 54.8201 22.5266 54.8927C21.8023 55.5468 21.2952 55.5952 20.4261 55.135C19.7259 54.7474 19.243 54.1176 18.6635 53.5847C18.1082 53.076 17.6012 52.5188 17.0941 51.9859C16.6595 51.5257 16.3698 50.9927 16.225 50.3629C16.1525 50.0238 16.2732 49.7331 16.4664 49.4909C17.1424 48.6188 17.8426 47.771 18.6152 46.9958C18.8808 46.6809 19.2188 46.4872 19.4603 46.5114Z" fill="white"/>
<path d="M43.1699 62.3052C42.7353 62.3052 42.3249 62.2083 41.9386 62.0145C41.0935 61.5785 40.2485 61.1667 39.4517 60.7064C38.5584 60.1977 38.5342 59.3257 39.3793 58.7443C40.7072 57.8238 42.011 56.9033 43.2665 55.9344C44.3047 55.135 45.6085 55.0381 46.5018 55.6679C47.033 56.0313 47.54 56.4431 48.0712 56.8306C48.361 57.0486 48.6507 57.2424 48.9404 57.4604C49.6165 57.9207 49.6889 58.5263 49.1577 59.1803C48.8438 59.5437 48.4575 59.7617 48.0712 60.0039C46.9606 60.7306 45.8258 61.4331 44.6186 62.0145C44.1599 62.2325 43.6528 62.2809 43.1699 62.3052Z" fill="white"/>
<path d="M9.39213 28.4405C9.34384 27.6654 9.63357 26.9629 10.0199 26.2846C10.6959 25.1219 11.3961 24.0076 12.1204 22.8691C12.2411 22.6753 12.386 22.5058 12.5792 22.3846C13.2552 21.9486 13.7381 22.0455 14.1968 22.6995C14.7522 23.4747 15.3075 24.2741 15.8869 25.0492C16.5147 25.8971 16.4181 27.302 15.8386 28.1256C15.1867 29.0461 14.4866 29.9424 13.8347 30.8629C13.5208 31.2989 13.2069 31.7349 12.9172 32.1952C12.3619 33.043 11.4444 33.043 10.9132 32.171C10.4062 31.2989 9.97159 30.3784 9.51285 29.4579C9.36798 29.143 9.39213 28.8039 9.39213 28.4405Z" fill="white"/>
<path d="M60.2641 16.9585C59.5397 16.9343 59.0569 16.7405 58.6947 16.3529C57.5358 15.2144 56.3768 14.0517 55.2179 12.889C54.9282 12.5983 54.7833 12.2349 54.6626 11.8474C54.5419 11.3387 54.6385 10.8784 55.0489 10.5393C55.7974 9.88525 56.5459 9.23121 57.3426 8.62562C57.7048 8.35916 58.0911 8.43183 58.4533 8.57717C58.9603 8.74674 59.3949 9.06165 59.757 9.425C60.5538 10.2244 61.3747 11.0238 62.1715 11.8474C62.6785 12.3803 63.089 12.9859 63.0648 13.7852C63.0648 13.9548 63.0407 14.1002 62.9199 14.2213C62.2922 15.0207 61.6886 15.82 60.9884 16.5467C60.7711 16.8374 60.4572 16.9828 60.2641 16.9585Z" fill="white"/>
<path d="M35.0333 8.11695C34.4056 8.14118 33.8744 7.94739 33.3674 7.58404C32.6189 7.05112 31.8463 6.5182 31.0737 6.0095C30.4459 5.5977 30.3735 5.089 30.8322 4.50764C31.1461 4.07161 31.6531 3.87782 32.0877 3.61136C33.0294 3.03 33.9951 2.47285 34.985 2.01261C36.144 1.45546 37.3029 1.43124 38.4618 2.06105C39.1137 2.40018 39.7656 2.71509 40.4175 3.05422C40.8279 3.27223 41.166 3.56292 41.1418 4.12006C41.1177 4.43497 40.9728 4.6772 40.7072 4.84677C39.7897 5.47658 38.824 6.08217 37.9306 6.73621C37.3995 7.12379 36.8924 7.55981 36.2888 7.8505C35.9025 8.02006 35.4679 8.14118 35.0333 8.11695Z" fill="white"/>
<path d="M29.7457 61.3847C28.9007 61.3847 28.2488 61.1424 27.6452 60.7548C26.6794 60.1492 25.7136 59.4952 24.772 58.8169C24.4099 58.5747 24.1684 58.2356 24.0235 57.7996C23.9028 57.4604 24.0235 57.194 24.265 57.0002C25.1583 56.3461 26.0517 55.7163 26.8967 55.0381C27.7418 54.3598 28.9973 54.6263 29.7699 55.2076C30.9288 56.0797 32.0636 56.976 33.1984 57.848C33.3915 57.9933 33.5364 58.1871 33.6571 58.3809C33.9227 58.8654 33.8261 59.4225 33.3432 59.7132C32.6672 60.1492 31.967 60.5368 31.2185 60.8517C31.0495 60.9244 30.8805 60.9971 30.7357 61.0697C30.3976 61.3362 30.0355 61.4331 29.7457 61.3847Z" fill="white"/>
<path d="M10.2855 41.9573C10.1889 41.4002 10.5269 40.9399 10.7442 40.4555C11.0581 39.7772 11.4202 39.1232 11.7583 38.4449C12.1687 37.694 12.9655 37.5971 13.5449 38.2269C14.2934 39.0263 14.8729 39.9468 15.5731 40.7946C15.8145 41.1095 16.0559 41.4486 16.3215 41.7393C16.732 42.1996 16.901 42.7809 16.9976 43.3623C17.07 43.8952 16.8768 44.3797 16.563 44.7915C15.9352 45.5909 15.3075 46.3902 14.7521 47.2381C14.4624 47.6741 14.1003 47.771 13.6174 47.5288C13.2311 47.335 12.9413 47.0201 12.6999 46.6567C11.9997 45.6151 11.2271 44.5977 10.6476 43.4834C10.382 43.0232 10.2372 42.5145 10.2855 41.9573Z" fill="white"/>
<path d="M51.717 8.98902C51.0651 8.91635 50.4132 8.69834 49.8579 8.26231C48.7714 7.43871 47.7091 6.61511 46.6226 5.81573C46.3811 5.64616 46.2363 5.40392 46.1155 5.16169C45.9224 4.74989 46.019 4.31386 46.4294 4.07163C47.3469 3.53871 48.3368 3.05423 49.375 2.76355C50.0752 2.56976 50.7512 2.812 51.379 3.10268C52.4172 3.61138 53.3588 4.28964 54.3004 4.94368C54.7109 5.23436 55.0972 5.52504 55.3628 5.93684C55.6042 6.32442 55.5559 6.63933 55.1938 6.88157C54.3729 7.46293 53.552 8.06852 52.7311 8.64989C52.4413 8.89212 52.1033 8.9648 51.717 8.98902Z" fill="white"/>
<path d="M68.8353 21.8275C68.9077 22.5057 68.5214 23.0871 68.28 23.7169C68.0627 24.2256 67.7971 24.7101 67.5315 25.1703C67.29 25.6064 66.8313 25.7275 66.3726 25.461C66.107 25.3157 65.9138 25.1219 65.7207 24.8796C64.9239 23.8138 64.1272 22.7722 63.3304 21.7064C62.9682 21.2461 62.7751 20.7132 62.6544 20.156C62.5578 19.6716 62.7026 19.2113 62.9682 18.8237C63.5235 18.0244 64.0789 17.225 64.6583 16.4256C64.9481 16.0138 65.1895 15.9654 65.6241 16.2318C66.1311 16.5467 66.4691 17.0312 66.783 17.5157C67.29 18.2666 67.7729 19.0175 68.2317 19.7685C68.5938 20.3983 68.8594 21.0523 68.8353 21.8275Z" fill="white"/>
<path d="M18.5669 11.5809C18.5669 12.2349 18.2531 12.7194 17.8909 13.1312C17.1907 13.9548 16.4422 14.7542 15.7179 15.5778C15.1385 16.2318 14.6314 16.9343 14.0278 17.5399C13.8347 17.7337 13.6174 17.8548 13.4001 17.9517C13.0379 18.0971 12.724 18.0002 12.555 17.6368C12.3377 17.225 12.1446 16.789 12.0239 16.3287C11.9031 15.9412 12.1204 15.602 12.2653 15.2871C12.5792 14.5362 13.1103 13.9306 13.6174 13.3008C14.221 12.5014 14.897 11.7747 15.5489 10.9995C15.8628 10.612 16.2491 10.3213 16.6837 10.0548C16.9734 9.88525 17.239 9.88525 17.4805 10.1759C17.7219 10.4424 17.9875 10.6846 18.2531 10.9269C18.4704 11.0964 18.5911 11.3144 18.5669 11.5809Z" fill="white"/>
<path d="M24.4581 4.02313C25.0376 4.0958 25.6171 4.28959 26.1241 4.58027C26.4138 4.72562 26.4621 5.0163 26.3172 5.30698C26.1482 5.69456 25.8585 5.96102 25.5446 6.22748C24.2408 7.24487 22.9853 8.28649 21.7298 9.37655C21.247 9.78835 20.7399 10.1033 20.1122 10.2244C19.7983 10.297 19.5086 10.2486 19.2671 10.0306C18.9774 9.76413 18.6877 9.52189 18.3979 9.25543C18.1082 8.98897 18.0599 8.79518 18.2772 8.45605C18.5669 7.9958 18.9532 7.60822 19.3878 7.24487C20.426 6.37282 21.4884 5.525 22.6232 4.79829C23.2026 4.43493 23.7821 4.12003 24.4581 4.02313Z" fill="white"/>
<path d="M36.9649 64.3642C35.6852 64.4611 34.4297 63.9766 33.1742 63.5406C32.8845 63.4437 32.5948 63.3226 32.3533 63.153C32.2084 63.0561 32.0636 62.935 32.0636 62.7412C32.0877 62.5232 32.2567 62.4505 32.4257 62.3778C33.4881 62.0145 34.5022 61.5058 35.5404 61.0455C36.4578 60.6337 37.3995 60.7306 38.2928 61.1424C39.2344 61.5784 40.1519 62.0871 41.0935 62.5232C41.3108 62.6201 41.5281 62.7896 41.5281 63.0561C41.5281 63.371 41.2867 63.5163 41.0452 63.589C40.2002 63.8797 39.3551 64.0977 38.4859 64.2673C38.0031 64.3642 37.5443 64.3642 36.9649 64.3642Z" fill="white"/>
<path d="M10.8408 34.9567C10.9374 35.6107 10.5511 36.1921 10.2855 36.8219C9.94745 37.5486 9.63357 38.2996 9.34384 39.0505C9.27141 39.2685 9.22312 39.5592 8.93339 39.5592C8.64366 39.5592 8.52294 39.317 8.42636 39.0747C8.16077 38.5176 7.99176 37.912 7.79861 37.3548C7.48473 36.4828 7.33987 35.5865 7.29158 34.666C7.26743 33.794 7.46059 32.9219 7.65374 32.0741C7.75032 31.6623 7.87104 31.2263 8.01591 30.8145C8.11248 30.4996 8.20906 30.1604 8.59537 30.0878C9.00582 30.0393 9.12654 30.4027 9.24726 30.6691C9.65771 31.6138 10.1647 32.5101 10.5993 33.4306C10.7684 33.9151 10.8408 34.3753 10.8408 34.9567Z" fill="white"/>
<path d="M42.2766 0.00203556C43.5321 0.0262592 45.1981 0.316942 46.8157 0.922532C46.9847 0.995203 47.1537 1.0921 47.3227 1.18899C47.4435 1.26166 47.5642 1.35856 47.54 1.5039C47.5159 1.67346 47.3952 1.74613 47.2503 1.79458C46.8157 1.93992 46.3811 2.08527 45.9465 2.23061C45.2463 2.44862 44.6186 2.81197 43.8943 2.98154C43.1699 3.17533 42.4698 3.10266 41.7937 2.81197C40.7555 2.37595 39.7656 1.84303 38.7032 1.407C38.5101 1.33433 38.2928 1.18899 38.3169 0.946756C38.3411 0.70452 38.5342 0.559178 38.7515 0.486508C39.7656 0.171601 40.7797 -0.022188 42.2766 0.00203556Z" fill="white"/>
<path d="M47.1537 63.4679C46.7433 63.4679 46.4294 63.4679 46.1155 63.3952C45.9465 63.371 45.8017 63.3225 45.7534 63.153C45.7051 62.9592 45.8258 62.8138 45.9707 62.7412C46.3328 62.5232 46.695 62.3051 47.0813 62.1114C48.2161 61.53 49.3026 60.876 50.3891 60.1977C50.872 59.907 51.4031 59.7374 51.9584 59.6405C52.2482 59.5921 52.5621 59.5921 52.8518 59.7374C53.2622 59.9312 53.6968 60.0766 54.1556 60.1977C54.4936 60.2946 54.5419 60.4642 54.2763 60.7064C53.7693 61.1666 53.1657 61.4573 52.5621 61.748C51.1375 62.4263 49.6406 62.9107 48.1195 63.371C47.7573 63.4679 47.3952 63.4921 47.1537 63.4679Z" fill="white"/>
<path d="M8.20906 24.6132C8.11248 23.7896 8.4505 23.0629 8.69194 22.2877C9.07825 21.1008 9.51285 19.938 10.044 18.8238C10.2855 18.3393 10.5269 17.8306 10.8891 17.4188C11.1788 17.0554 11.3478 17.1039 11.4927 17.5399C11.6375 18.0002 11.8066 18.4604 11.9756 18.8964C12.1929 19.5262 12.0239 20.1561 11.7341 20.7132C11.372 21.4399 10.9615 22.1182 10.5511 22.8206C10.0682 23.62 9.63357 24.4679 9.19897 25.2915C9.15068 25.3884 9.07825 25.4852 9.02996 25.5821C8.93339 25.7517 8.78852 25.897 8.57122 25.8486C8.35392 25.8002 8.30563 25.5821 8.28149 25.3884C8.18491 25.1461 8.20906 24.8797 8.20906 24.6132Z" fill="white"/>
<path d="M14.4624 52.4461C14.559 52.1554 14.7039 51.7921 15.0177 51.5014C15.1143 51.4045 15.235 51.4287 15.3558 51.4529C15.7662 51.5498 16.1042 51.7678 16.394 52.0585C17.5046 53.1486 18.5911 54.2629 19.6776 55.3772C19.919 55.6194 20.088 55.9343 20.1846 56.2734C20.257 56.5399 20.1605 56.7337 19.919 56.8548C19.8949 56.8548 19.8707 56.879 19.8707 56.879C18.8325 57.3635 19.1705 57.3635 18.3255 56.661C16.9734 55.5225 15.7421 54.2387 14.6073 52.8821C14.5349 52.7852 14.4383 52.6883 14.4624 52.4461Z" fill="white"/>
<path d="M33.3191 0.559191C33.4398 0.559191 33.7054 0.510744 33.9227 0.631862C34.1883 0.75298 34.2124 0.922545 34.0193 1.11633C33.9468 1.18901 33.8503 1.26168 33.7537 1.31012C32.2809 2.01261 30.8322 2.81199 29.3836 3.58714C28.5627 4.02317 27.6935 4.19273 26.776 3.78093C26.4863 3.65981 26.1482 3.56292 25.8102 3.51447C25.5446 3.46602 25.4963 3.29646 25.6895 3.10267C25.9792 2.81199 26.3414 2.6182 26.7036 2.47286C28.2729 1.81882 29.8423 1.26168 31.4841 0.874098C32.0394 0.728757 32.5948 0.534968 33.3191 0.559191Z" fill="white"/>
<path d="M63.8616 12.5499C63.6201 12.5014 63.3304 12.3319 63.0889 12.1139C62.2439 11.3629 61.5196 10.4909 60.6987 9.71573C60.2158 9.25548 59.7087 8.84368 59.3466 8.28653C59.2741 8.18964 59.2259 8.06852 59.1534 7.97163C59.0327 7.75361 58.9844 7.51138 59.2259 7.34181C59.4673 7.19647 59.7087 7.02691 60.0226 7.26914C61.5196 8.50455 62.8958 9.86107 64.1271 11.3629C64.4893 11.799 64.5135 11.9443 64.272 12.3561C64.1996 12.4772 64.103 12.5741 63.8616 12.5499Z" fill="white"/>
<path d="M27.4762 62.0387C26.8243 62.0387 26.3414 61.748 25.8102 61.5057C24.2167 60.779 22.6956 59.907 21.247 58.8896C21.1504 58.8169 20.9814 58.7927 21.0297 58.6231C21.078 58.4778 21.2228 58.5263 21.3435 58.502C21.4643 58.4778 21.585 58.4778 21.6574 58.4294C22.2852 58.0902 22.8646 58.284 23.4441 58.5505C24.096 58.8654 24.6272 59.3014 25.2308 59.689C25.9309 60.1492 26.6553 60.5853 27.3555 61.0455C27.4762 61.1182 27.5969 61.1908 27.6935 61.2877C27.8383 61.4331 28.0315 61.6026 27.9349 61.8449C27.8625 62.0871 27.5969 62.0144 27.4762 62.0387Z" fill="white"/>
<path d="M13.4242 49.3213C13.3518 49.5151 13.2794 49.7573 13.2069 49.9996C13.1828 50.0722 13.1586 50.1449 13.1345 50.2176C13.0862 50.3629 13.1586 50.5809 12.9655 50.6051C12.7965 50.6294 12.7482 50.4356 12.6758 50.3145C11.6617 48.8126 10.7684 47.2623 10.044 45.6151C9.94745 45.3971 9.85087 45.1548 9.7543 44.9368C9.60943 44.6704 9.58529 44.3797 9.60943 44.089C9.63357 43.9194 9.60943 43.7256 9.80258 43.653C9.99574 43.5803 10.1165 43.7256 10.2372 43.8468C10.4062 44.0163 10.5511 44.2101 10.6718 44.4039C11.3478 45.5424 12.0963 46.6082 12.8206 47.6983C13.1345 48.1828 13.3276 48.7157 13.4242 49.3213Z" fill="white"/>
<path d="M57.0529 5.9126C56.4251 5.86416 55.9181 5.5977 55.4352 5.30701C54.4695 4.70142 53.552 4.04739 52.5862 3.46602C52.2723 3.29646 51.9584 3.12689 51.6929 2.88465C51.5721 2.78776 51.4273 2.66664 51.4997 2.49708C51.5721 2.32751 51.7653 2.37596 51.886 2.40018C52.2482 2.47285 52.5379 2.66664 52.8759 2.81198C54.4694 3.51447 55.9664 4.38652 57.4151 5.33124C57.4875 5.37969 57.5599 5.42813 57.6082 5.47658C57.6806 5.54925 57.8738 5.5977 57.8014 5.74304C57.7531 5.86416 57.6082 5.83993 57.5116 5.83993C57.3426 5.86416 57.1736 5.88838 57.0529 5.9126Z" fill="white"/>
<path d="M32.4016 26.212C32.4257 25.4852 32.1843 24.9039 31.7014 24.4194C30.7115 23.4262 29.7216 22.4331 28.7317 21.4399C27.8383 20.5436 26.438 20.5436 25.5446 21.4399C25.2066 21.779 24.8927 22.1424 24.5547 22.4815C23.5165 23.5958 22.4783 24.6859 21.4643 25.8002C20.6192 26.6964 20.5226 28.2225 21.2711 29.0946C22.261 30.2331 23.2751 31.3474 24.3133 32.4374C24.8927 33.043 25.6171 33.1641 26.4138 32.9461C26.945 32.8008 27.3072 32.4616 27.6452 32.0741L31.4358 28.1256C31.9911 27.6169 32.4257 27.0356 32.4016 26.212Z" fill="white"/>
</svg>
